M48
; DRILL file {KiCad (5.1.6-0-10_14)} date Thursday, July 09, 2020 at 11:45:56 PM
; FORMAT={-:-/ absolute / inch / decimal}
; #@! TF.CreationDate,2020-07-09T23:45:56+02:00
; #@! TF.GenerationSoftware,Kicad,Pcbnew,(5.1.6-0-10_14)
; #@! TF.FileFunction,Plated,1,2,PTH
FMAT,2
INCH
T1C0.0157
T2C0.0236
T3C0.0276
T4C0.0315
T5C0.0354
T6C0.0400
T7C0.0433
T8C0.0591
T9C0.0866
%
G90
G05
T1
X2.2677Y-3.4043
X2.78Y-5.05
X3.03Y-4.075
X3.15Y-3.53
X4.15Y-3.16
X4.61Y-3.16
X5.11Y-3.16
X5.495Y-7.03
X5.6Y-3.16
X6.1Y-3.16
X6.53Y-3.16
X6.85Y-3.85
X6.85Y-6.95
X6.855Y-3.39
X6.995Y-7.04
X7.17Y-3.16
X7.63Y-3.16
X8.495Y-7.05
X8.54Y-3.16
X8.8081Y-2.6926
X9.085Y-3.16
X9.2538Y-2.5783
X9.3199Y-2.7294
X9.373Y-2.714
X9.3984Y-2.663
X9.485Y-3.16
X9.8111Y-2.6475
X9.8138Y-2.7732
X9.8457Y-2.6956
X9.8504Y-2.5989
X9.8607Y-2.6564
X9.98Y-2.97
X10.035Y-3.16
X10.1279Y-2.4548
X10.3269Y-2.3716
X10.3558Y-2.5328
X10.5374Y-2.3861
X10.585Y-3.155
X10.7028Y-2.5052
X10.8982Y-2.4422
X10.905Y-2.6564
X10.945Y-2.6835
X10.9813Y-2.7102
X11.2693Y-2.5741
X11.3519Y-2.39
X11.4Y-2.41
X11.7558Y-3.0846
X11.9017Y-2.603
X11.9494Y-3.5021
X12.0022Y-2.603
X12.1028Y-2.603
X12.2034Y-2.603
X12.304Y-2.603
X12.3965Y-2.8028
X12.4045Y-2.603
X12.4514Y-2.9017
X12.4523Y-3.0805
X12.4799Y-3.4642
X12.5Y-5.79
X12.5051Y-2.603
X12.5051Y-2.8056
X12.5961Y-2.8056
X12.6953Y-2.8056
X12.712Y-2.4804
X12.7734Y-3.6488
X12.835Y-4.645
X13.13Y-6.675
X13.32Y-3.465
X13.48Y-6.645
X13.487Y-3.6945
X13.58Y-3.845
X13.58Y-4.625
X13.58Y-5.36
X13.58Y-6.1
X10.8098Y-2.5617
X10.81Y-2.6138
X10.8432Y-2.5617
X10.8434Y-2.6138
X10.8767Y-2.5617
X10.8769Y-2.6138
X10.9102Y-2.5617
X10.9104Y-2.6138
X10.9436Y-2.5617
X10.9438Y-2.6138
X10.9771Y-2.5617
X10.9773Y-2.6138
X11.0106Y-2.5617
X11.0108Y-2.6138
X11.0442Y-2.5617
X11.0442Y-2.6138
T2
X11.1999Y-2.7128
X11.1999Y-2.7718
T3
X10.6318Y-2.3366
X10.6318Y-2.5374
X11.3684Y-2.4832
X11.6684Y-2.4832
X11.3684Y-2.5814
X11.6684Y-2.5814
X11.3684Y-2.6795
X11.6684Y-2.6795
X11.3684Y-2.7787
X11.6684Y-2.7787
X11.3684Y-3.0763
X11.6684Y-3.0763
X11.3684Y-2.88
X11.6684Y-2.88
X11.3684Y-2.9782
X11.6684Y-2.9782
T4
X10.8481Y-2.8518
X10.8481Y-3.0518
X12.9008Y-3.1302
X12.9008Y-3.2286
X9.6Y-3.145
X9.8Y-3.145
X7.1209Y-2.7216
X7.1209Y-2.9216
X10.476Y-2.6565
X10.476Y-2.8565
X4.9996Y-2.6565
X4.9996Y-2.8565
X9.1139Y-2.7216
X9.1139Y-2.9216
X4.0013Y-2.6565
X4.0013Y-2.8565
X5.3739Y-2.8518
X5.3739Y-3.0518
X9.2379Y-2.7867
X9.2379Y-2.9867
X9.8557Y-2.8518
X9.8557Y-3.0518
X10.3519Y-2.8518
X10.3519Y-3.0518
X5.2492Y-2.7867
X5.2492Y-2.9867
X9.9798Y-2.6565
X9.9798Y-2.8565
X3.5022Y-2.6565
X3.5022Y-2.8565
X5.9978Y-2.6565
X5.9978Y-2.8565
X10.1038Y-2.7216
X10.1038Y-2.9216
X8.2439Y-2.7867
X8.2439Y-2.9867
X9.486Y-2.6565
X9.486Y-2.8565
X7.2457Y-2.7867
X7.2457Y-2.9867
X4.75Y-2.7867
X4.75Y-2.9867
X6.6218Y-2.7216
X6.6218Y-2.9216
X6.7465Y-2.7867
X6.7465Y-2.9867
X3.627Y-2.7216
X3.627Y-2.9216
X8.6176Y-2.7216
X8.6176Y-2.9216
X3.0031Y-2.6565
X3.0031Y-2.8565
X6.2474Y-2.7867
X6.2474Y-2.9867
X2.5039Y-2.6565
X2.5039Y-2.8565
X11.8013Y-2.4074
X11.8013Y-3.0074
X11.9013Y-2.4074
X11.9013Y-3.0074
X12.0013Y-2.4074
X12.0013Y-3.0074
X12.1013Y-2.4074
X12.1013Y-3.0074
X12.2013Y-2.4074
X12.2013Y-3.0074
X12.3013Y-2.4074
X12.3013Y-3.0074
X12.4013Y-2.4074
X12.4013Y-3.0074
X12.5013Y-2.4074
X12.5013Y-3.0074
X12.6013Y-2.4074
X12.6013Y-3.0074
X12.7013Y-2.4074
X12.7013Y-3.0074
X12.8013Y-2.4074
X12.8013Y-3.0074
X12.9013Y-2.4074
X12.9013Y-3.0074
X13.0013Y-2.4074
X13.0013Y-3.0074
X13.1013Y-2.4074
X13.1013Y-3.0074
X13.2013Y-2.4074
X13.2013Y-3.0074
X13.3013Y-2.4074
X13.3013Y-3.0074
X13.4013Y-2.4074
X13.4013Y-3.0074
X13.5013Y-2.4074
X13.5013Y-3.0074
X13.6013Y-2.4074
X13.6013Y-3.0074
X13.7013Y-2.4074
X13.7013Y-3.0074
X6.8713Y-2.8518
X6.8713Y-3.0518
X10.2279Y-2.7867
X10.2279Y-2.9867
X8.8658Y-2.8518
X8.8658Y-3.0518
X3.2526Y-2.7867
X3.2526Y-2.9867
X3.7518Y-2.7867
X3.7518Y-2.9867
X5.4987Y-2.6565
X5.4987Y-2.8565
X4.6252Y-2.7216
X4.6252Y-2.9216
X4.1261Y-2.7216
X4.1261Y-2.9216
X4.5005Y-2.6565
X4.5005Y-2.8565
X6.745Y-3.155
X6.945Y-3.155
X13.4609Y-3.1302
X13.4609Y-3.2286
X6.1226Y-2.7216
X6.1226Y-2.9216
X12.617Y-3.0991
X12.8138Y-3.0991
X9.362Y-2.8518
X9.362Y-3.0518
X8.1191Y-2.7216
X8.1191Y-2.9216
X6.497Y-2.6565
X6.497Y-2.8565
X6.3722Y-2.8518
X6.3722Y-3.0518
X3.1279Y-2.7216
X3.1279Y-2.9216
X13.0855Y-3.1597
X13.2776Y-3.1597
X3.75Y-3.155
X3.95Y-3.155
X4.8748Y-2.8518
X4.8748Y-3.0518
X8.7417Y-2.7867
X8.7417Y-2.9867
X8.3687Y-2.8518
X8.3687Y-3.0518
X5.8731Y-2.8518
X5.8731Y-3.0518
X4.3757Y-2.8518
X4.3757Y-3.0518
X2.7535Y-2.7867
X2.7535Y-2.9867
X5.1244Y-2.7216
X5.1244Y-2.9216
X8.4935Y-2.6565
X8.4935Y-2.8565
X3.3774Y-2.8518
X3.3774Y-3.0518
X11.1538Y-2.8804
X11.1538Y-3.0804
X7.9944Y-2.6565
X7.9944Y-2.8565
X12.8Y-2.322
X12.9969Y-2.322
X8.9899Y-2.6565
X8.9899Y-2.8565
X7.62Y-2.7216
X7.62Y-2.9216
X7.8696Y-2.8518
X7.8696Y-3.0518
X2.8783Y-2.8518
X2.8783Y-3.0518
X6.9961Y-2.6565
X6.9961Y-2.8565
X7.4952Y-2.6565
X7.4952Y-2.8565
X3.8766Y-2.8518
X3.8766Y-3.0518
X10.7265Y-2.7867
X10.7265Y-2.9867
X5.6235Y-2.7216
X5.6235Y-2.9216
X9.6101Y-2.7216
X9.6101Y-2.9216
X4.2509Y-2.7867
X4.2509Y-2.9867
X11.2667Y-2.8804
X11.2667Y-3.0804
X7.3704Y-2.8518
X7.3704Y-3.0518
X7.7448Y-2.7867
X7.7448Y-2.9867
X2.6287Y-2.7216
X2.6287Y-2.9216
X10.6049Y-2.7216
X10.6049Y-2.9216
X9.7317Y-2.7867
X9.7317Y-2.9867
X5.7483Y-2.7867
X5.7483Y-2.9867
T5
X11.185Y-2.4398
X11.285Y-2.4398
T6
X9.8509Y-2.376
X9.8509Y-2.476
X9.9509Y-2.376
X9.9509Y-2.476
X10.0509Y-2.376
X10.0509Y-2.476
T7
X8.9168Y-2.3558
X8.9168Y-2.5329
X9.1727Y-2.3558
X9.1727Y-2.5329
X9.3892Y-2.3558
X9.3892Y-2.5329
X9.6451Y-2.3558
X9.6451Y-2.5329
T8
X6.0938Y-3.6313
X6.3438Y-3.5312
X7.4062Y-5.1312
X7.6562Y-5.0312
X3.4688Y-4.3812
X3.7188Y-4.2812
X4.7812Y-5.8812
X5.0312Y-5.7812
X2.625Y-5.1309
X2.875Y-5.0309
X10.2188Y-4.3812
X10.4688Y-4.2812
X13.5938Y-5.8812
X13.8438Y-5.7812
X6.846Y-6.6312
X7.096Y-6.5312
X3.6562Y-5.1312
X3.9062Y-5.0312
X9.0938Y-3.6313
X9.3438Y-3.5312
X10.4062Y-5.1312
X10.6562Y-5.0312
X3.845Y-6.6312
X4.095Y-6.5312
X7.7813Y-5.8812
X8.0313Y-5.7812
X11.3453Y-6.6312
X11.5953Y-6.5312
X12.4688Y-3.6313
X12.7188Y-3.5312
X6.6562Y-5.1312
X6.9062Y-5.0312
X13.5938Y-3.6313
X13.8438Y-3.5312
X4.0312Y-5.8812
X4.2812Y-5.7812
X9.4688Y-4.3812
X9.7188Y-4.2812
X12.8438Y-5.8812
X13.0938Y-5.7812
X13.5938Y-4.3812
X13.8438Y-4.2812
X8.3438Y-3.6313
X8.5938Y-3.5312
X9.6562Y-5.1312
X9.9062Y-5.0312
X11.9062Y-5.1312
X12.1562Y-5.0312
X8.345Y-6.6312
X8.595Y-6.5312
X3.095Y-6.6312
X3.345Y-6.5312
X7.0313Y-5.8812
X7.2813Y-5.7812
X12.6562Y-4.3812
X12.9062Y-4.2812
X3.281Y-5.881
X3.531Y-5.781
X2.3438Y-3.6313
X2.5938Y-3.5312
X5.9062Y-5.1312
X6.1562Y-5.0312
X10.5938Y-3.6313
X10.8438Y-3.5312
X8.7188Y-4.3812
X8.9688Y-4.2812
X10.7813Y-5.8812
X11.0313Y-5.7812
X5.3438Y-3.6313
X5.5938Y-3.5312
X11.7188Y-4.3812
X11.9688Y-4.2812
X7.5938Y-3.6313
X7.8438Y-3.5312
X8.9062Y-5.1312
X9.1562Y-5.0312
X6.4688Y-4.3812
X6.7188Y-4.2812
X4.9688Y-4.3812
X5.2188Y-4.2812
X13.5938Y-6.6312
X13.8438Y-6.5312
X12.375Y-5.1312
X12.625Y-5.0312
X12.75Y-4.7562
X13.0Y-4.6562
X5.1562Y-5.1312
X5.4062Y-5.0312
X13.5938Y-5.1312
X13.8438Y-5.0312
X7.9688Y-4.3812
X8.2188Y-4.2812
X10.0313Y-5.8812
X10.2813Y-5.7812
X4.5938Y-3.6313
X4.8438Y-3.5312
X2.4375Y-5.8812
X2.6875Y-5.7812
X5.7188Y-4.3812
X5.9688Y-4.2812
X6.2813Y-5.8812
X6.5313Y-5.7812
X5.345Y-6.6312
X5.595Y-6.5312
X11.3438Y-3.6313
X11.5938Y-3.5312
X12.8438Y-6.6312
X13.0938Y-6.5312
X2.5312Y-4.3812
X2.7812Y-4.2812
X9.8438Y-3.6313
X10.0938Y-3.5312
X11.1562Y-5.1312
X11.4062Y-5.0312
X7.2188Y-4.3812
X7.4688Y-4.2812
X9.2813Y-5.8812
X9.5313Y-5.7812
X3.8438Y-3.6313
X4.0938Y-3.5312
X9.844Y-6.6312
X10.094Y-6.5312
X2.8125Y-5.8812
X3.0625Y-5.7812
X2.4375Y-5.1309
X2.6875Y-5.0309
X6.8438Y-3.6313
X7.0938Y-3.5312
X8.1562Y-5.1312
X8.4062Y-5.0312
X4.2188Y-4.3812
X4.4688Y-4.2812
X5.5312Y-5.8812
X5.7812Y-5.7812
X11.8125Y-5.8812
X12.0625Y-5.7812
X10.9688Y-4.3812
X11.2188Y-4.2812
X12.0938Y-6.6312
X12.3438Y-6.5312
X4.4062Y-5.1312
X4.6562Y-5.0312
X10.5951Y-6.6312
X10.8451Y-6.5312
X2.344Y-6.6312
X2.594Y-6.5312
X8.5313Y-5.8812
X8.7813Y-5.7812
X3.0938Y-3.6313
X3.3438Y-3.5312
T9
X8.1186Y-3.1671
X8.1186Y-2.4289
X8.1186Y-4.1064
X8.1186Y-6.3444
X11.7587Y-4.1064
X4.4785Y-4.1064
X12.4355Y-6.3444
X3.8018Y-6.3444
X13.9359Y-3.1583
X13.9359Y-2.437
X2.3014Y-2.437
X2.3014Y-3.1583
T2
G00X10.7568Y-2.4579
M15
G01X10.7568Y-2.4264
M16
G05
G00X10.7568Y-2.6048
M15
G01X10.7568Y-2.5457
M16
G05
G00X11.0974Y-2.4579
M15
G01X11.0974Y-2.4264
M16
G05
G00X11.0974Y-2.6048
M15
G01X11.0974Y-2.5457
M16
G05
T0
M30
